HIERARCHY
ROOT Hips
{
	OFFSET 0.000000 0.000000 0.000000
	CHANNELS 6 Xposition Yposition Zposition Zrotation Yrotation Xrotation 
	JOINT LHipJoint
	{
		OFFSET 0.000000 0.000000 0.000000
		CHANNELS 3 Zrotation Yrotation Xrotation
		JOINT LeftUpLeg
		{
			OFFSET 1.363060 -1.794630 0.839290
			CHANNELS 3 Zrotation Yrotation Xrotation
			JOINT LeftLeg
			{
				OFFSET 2.448110 -6.726130 0.000000
				CHANNELS 3 Zrotation Yrotation Xrotation
				JOINT LeftFoot
				{
					OFFSET 2.562200 -7.039590 0.000000
					CHANNELS 3 Zrotation Yrotation Xrotation
					JOINT LeftToeBase
					{
						OFFSET 0.157640 -0.433110 2.322550
						CHANNELS 3 Zrotation Yrotation Xrotation
						End Site
						{
							OFFSET 0.000000 0.000000 0.000000
						}
					}
				}
			}
		}
	}
	JOINT RHipJoint
	{
		OFFSET 0.000000 0.000000 0.000000
		CHANNELS 3 Zrotation Yrotation Xrotation
		JOINT RightUpLeg
		{
			OFFSET -1.305520 -1.794630 0.839290
			CHANNELS 3 Zrotation Yrotation Xrotation
			JOINT RightLeg
			{
				OFFSET -2.542530 -6.985550 0.000000
				CHANNELS 3 Zrotation Yrotation Xrotation
				JOINT RightFoot
				{
					OFFSET -2.568260 -7.056230 0.000000
					CHANNELS 3 Zrotation Yrotation Xrotation
					JOINT RightToeBase
					{
						OFFSET -0.164730 -0.452590 2.363150
						CHANNELS 3 Zrotation Yrotation Xrotation
						End Site
						{
							OFFSET 0.000000 0.000000 0.000000
						}
					}
				}
			}
		}
	}
	JOINT LowerBack
	{
		OFFSET 0.000000 0.000000 0.000000
		CHANNELS 3 Zrotation Yrotation Xrotation
		JOINT Spine
		{
			OFFSET 0.028270 2.035590 -0.193380
			CHANNELS 3 Zrotation Yrotation Xrotation
			JOINT Spine1
			{
				OFFSET 0.056720 2.048850 -0.042750
				CHANNELS 3 Zrotation Yrotation Xrotation
				JOINT Neck
				{
					OFFSET 0.000000 0.000000 0.000000
					CHANNELS 3 Zrotation Yrotation Xrotation
					JOINT Neck1
					{
						OFFSET -0.054170 1.746240 0.172020
						CHANNELS 3 Zrotation Yrotation Xrotation
						JOINT Head
						{
							OFFSET 0.104070 1.761360 -0.123970
							CHANNELS 3 Zrotation Yrotation Xrotation
							End Site
							{
								OFFSET 0.000000 0.000000 0.000000
							}
						}
					}
				}
				JOINT LeftShoulder
				{
					OFFSET 0.000000 0.000000 0.000000
					CHANNELS 3 Zrotation Yrotation Xrotation
					JOINT LeftArm
					{
						OFFSET 3.362410 1.200890 -0.311210
						CHANNELS 3 Zrotation Yrotation Xrotation
						JOINT LeftForeArm
						{
							OFFSET 4.983000 -0.000000 -0.000000
							CHANNELS 3 Zrotation Yrotation Xrotation
							JOINT LeftHand
							{
								OFFSET 3.483560 -0.000000 -0.000000
								CHANNELS 3 Zrotation Yrotation Xrotation
								JOINT LeftFingerBase
								{
									OFFSET 0.000000 0.000000 0.000000
									CHANNELS 3 Zrotation Yrotation Xrotation
									JOINT LeftHandIndex1
									{
										OFFSET 0.715260 -0.000000 -0.000000
										CHANNELS 3 Zrotation Yrotation Xrotation
										End Site
										{
											OFFSET 0.000000 0.000000 0.000000
										}
									}
								}
								JOINT LThumb
								{
									OFFSET 0.000000 0.000000 0.000000
									CHANNELS 3 Zrotation Yrotation Xrotation
									End Site
									{
										OFFSET 0.000000 0.000000 0.000000
									}
								}
							}
						}
					}
				}
				JOINT RightShoulder
				{
					OFFSET 0.000000 0.000000 0.000000
					CHANNELS 3 Zrotation Yrotation Xrotation
					JOINT RightArm
					{
						OFFSET -3.136600 1.374050 -0.404650
						CHANNELS 3 Zrotation Yrotation Xrotation
						JOINT RightForeArm
						{
							OFFSET -5.241900 -0.000000 -0.000000
							CHANNELS 3 Zrotation Yrotation Xrotation
							JOINT RightHand
							{
								OFFSET -3.444170 -0.000000 -0.000000
								CHANNELS 3 Zrotation Yrotation Xrotation
								JOINT RightFingerBase
								{
									OFFSET 0.000000 0.000000 0.000000
									CHANNELS 3 Zrotation Yrotation Xrotation
									JOINT RightHandIndex1
									{
										OFFSET -0.622530 -0.000000 -0.000000
										CHANNELS 3 Zrotation Yrotation Xrotation
										End Site
										{
											OFFSET 0.000000 0.000000 0.000000
										}
									}
								}
								JOINT RThumb
								{
									OFFSET 0.000000 0.000000 0.000000
									CHANNELS 3 Zrotation Yrotation Xrotation
									End Site
									{
										OFFSET 0.000000 0.000000 0.000000
									}
								}
							}
						}
					}
				}
			}
		}
	}
}
MOTION
Frames: 10
Frame Time: 0.033333
-1.757865 17.080317 23.713486 1.375744 3.231203 9.483689 -5.227850 10.994722 -3.280993 -18.545436 -4.144527 -8.965832 -12.334117 -9.085797 -23.125598 0.507377 10.562426 23.167508 0.000000 0.000000 0.000000 9.718867 -10.288682 -1.188477 10.453930 6.050951 -11.254583 -16.913661 -22.909492 54.389434 19.702737 -49.907520 20.186154 0.000000 0.000000 0.000000 -2.165592 0.841740 11.738102 2.235526 0.157174 -2.432158 -1.571684 0.900063 -6.792795 1.048992 0.077819 -1.179158 2.955118 -0.124597 4.621092 0.000000 0.000000 0.000000 4.142732 9.190712 8.977017 -69.257734 -5.305319 23.190449 -19.796865 -76.412087 0.553826 1.296578 -14.924817 0.271022 1.336696 -14.928539 0.000000 0.000000 0.000000 0.000000 0.000000 0.000000 0.000000 -6.581164 -13.167312 4.542819 71.905559 2.372368 20.658297 -177.975790 86.111478 -179.644922 -2.938928 12.840087 0.173122 -2.982997 12.833639 0.000000 0.000000 0.000000 0.000000 0.000000 0.000000 0.000000 
-1.768443 17.108446 23.914598 1.785089 3.485376 9.597917 -4.782772 11.082507 -3.722966 -19.620842 -4.180805 -8.535791 -11.996429 -8.500781 -21.129748 0.254268 8.902552 19.911999 0.000000 0.000000 0.000000 9.791350 -10.423526 -0.620391 9.678768 5.788759 -11.314616 -16.232294 -22.953542 53.656638 20.005361 -50.862343 20.683393 0.000000 0.000000 0.000000 -2.283953 0.982036 11.759102 2.153003 0.166677 -2.349919 -1.979666 0.940462 -7.092217 1.125906 0.101079 -0.884603 3.055050 -0.136954 4.851317 0.000000 0.000000 0.000000 4.066883 9.115326 8.866923 -69.033697 -5.400195 23.737315 -21.795234 -75.147098 0.590732 0.889663 -14.758680 0.290022 0.921741 -14.764751 0.000000 0.000000 0.000000 0.000000 0.000000 0.000000 0.000000 -6.975783 -13.395530 4.221231 72.717264 2.180753 20.178999 -179.284077 84.717974 -179.652832 -3.136018 12.755008 0.169076 -3.181642 12.747425 0.000000 0.000000 0.000000 0.000000 0.000000 0.000000 0.000000 
-1.778947 17.137996 24.112196 2.180369 3.725988 9.708244 -4.417277 11.163451 -4.148166 -20.608346 -4.219000 -8.160332 -11.587768 -7.897885 -19.136687 0.054063 7.337834 16.821186 0.000000 0.000000 0.000000 9.929640 -10.505198 -0.011756 8.763093 5.421173 -11.359785 -15.411573 -23.072741 52.776883 20.228512 -51.619410 21.091246 0.000000 0.000000 0.000000 -2.413649 1.096953 11.727405 2.102160 0.165861 -2.263206 -2.355044 0.966366 -7.338960 1.248117 0.113947 -0.672441 3.111887 -0.144689 5.007016 0.000000 0.000000 0.000000 3.959381 9.034935 8.775235 -68.819371 -5.497928 24.118678 -23.827130 -73.773821 0.622256 0.492804 -14.556557 0.306326 0.517300 -14.564594 0.000000 0.000000 0.000000 0.000000 0.000000 0.000000 0.000000 -7.354046 -13.577124 3.977589 73.463535 2.033778 19.665992 179.631464 83.562486 -179.661977 -3.300454 12.644274 0.164453 -3.347219 12.635721 0.000000 0.000000 0.000000 0.000000 0.000000 0.000000 0.000000 
-1.788154 17.168450 24.305542 2.557742 3.942481 9.818112 -4.134068 11.233225 -4.552527 -21.494942 -4.255115 -7.839193 -11.130723 -7.286433 -17.177002 -0.101161 5.886779 13.925436 0.000000 0.000000 0.000000 10.130806 -10.541606 0.637790 7.722475 4.969104 -11.394270 -14.471717 -23.256997 51.757915 20.364130 -52.187238 21.447019 0.000000 0.000000 0.000000 -2.551613 1.188431 11.638885 2.077528 0.157886 -2.172124 -2.696583 0.981757 -7.537626 1.406816 0.117578 -0.540539 3.130523 -0.147899 5.094384 0.000000 0.000000 0.000000 3.821695 8.952038 8.703187 -68.614089 -5.597386 24.323040 -25.881354 -72.281475 0.647690 0.109064 -14.316057 0.319574 0.126568 -14.325673 0.000000 0.000000 0.000000 0.000000 0.000000 0.000000 0.000000 -7.707316 -13.708038 3.810786 74.138926 1.918417 19.145784 178.747868 82.622938 -179.671817 -3.436043 12.522914 0.159511 -3.483664 12.513545 0.000000 0.000000 0.000000 0.000000 0.000000 0.000000 0.000000 
-1.796109 17.199241 24.493882 2.914148 4.121617 9.929234 -3.931538 11.285903 -4.931754 -22.272096 -4.282755 -7.565927 -10.635953 -6.680035 -15.290645 -0.218438 4.563146 11.249053 0.000000 0.000000 0.000000 10.391388 -10.540217 1.328906 6.569667 4.449053 -11.417864 -13.422630 -23.501986 50.601201 20.407248 -52.569401 21.772703 0.000000 0.000000 0.000000 -2.698042 1.258697 11.487320 2.076093 0.146202 -2.072792 -3.001579 0.990649 -7.693927 1.597128 0.112434 -0.490982 3.111671 -0.146618 5.114998 0.000000 0.000000 0.000000 3.653396 8.868483 8.652195 -68.417647 -5.695713 24.338169 -27.941915 -70.658866 0.666225 -0.257981 -14.034651 0.329353 -0.246739 -14.045454 0.000000 0.000000 0.000000 0.000000 0.000000 0.000000 0.000000 -8.027364 -13.782656 3.721048 74.736024 1.822112 18.639768 178.050407 81.887731 -179.681898 -3.546058 12.404254 0.154461 -3.594372 12.394200 0.000000 0.000000 0.000000 0.000000 0.000000 0.000000 0.000000 
-1.801893 17.230317 24.677126 3.246863 4.157684 10.052909 -3.791443 11.390779 -5.262459 -22.964239 -4.317048 -7.393347 -10.121455 -6.055706 -13.455339 -0.311071 3.375238 8.757192 0.000000 0.000000 0.000000 10.701697 -10.495890 2.023799 5.341439 3.874162 -11.426828 -12.408211 -23.765725 49.343413 20.241476 -52.702388 22.251071 0.000000 0.000000 0.000000 -2.887804 1.275688 11.285655 2.073113 0.108719 -1.977887 -3.142837 0.960637 -7.798006 1.707230 0.104193 -0.480219 3.075014 -0.143675 5.089182 0.000000 0.000000 0.000000 3.500226 8.834535 8.646212 -68.296384 -5.734486 24.262908 -29.104797 -69.654857 0.673378 -0.457573 -13.854782 0.333211 -0.449546 -13.866083 0.000000 0.000000 0.000000 0.000000 0.000000 0.000000 0.000000 -8.129481 -13.832444 3.716704 74.939165 1.724170 18.444321 177.850054 81.667129 -179.686028 -3.580516 12.361999 0.152392 -3.629126 12.351715 0.000000 0.000000 0.000000 0.000000 0.000000 0.000000 0.000000 
-1.804948 17.261216 24.855181 3.552858 4.032582 10.189245 -3.708479 11.549472 -5.541175 -23.568204 -4.352269 -7.315286 -9.605949 -5.419940 -11.696508 -0.382165 2.326422 6.452441 0.000000 0.000000 0.000000 11.052691 -10.414316 2.722327 4.046163 3.253279 -11.421043 -11.438617 -24.047462 47.986961 19.841928 -52.570177 22.915037 0.000000 0.000000 0.000000 -3.123484 1.238087 11.027920 2.066536 0.045735 -1.886446 -3.106634 0.892034 -7.849204 1.730971 0.092864 -0.507756 3.017862 -0.138915 5.010926 0.000000 0.000000 0.000000 3.365678 8.847792 8.688839 -68.259458 -5.687824 24.199738 -29.313839 -69.402396 0.672963 -0.493391 -13.807781 0.333068 -0.485961 -13.819122 0.000000 0.000000 0.000000 0.000000 0.000000 0.000000 0.000000 -7.997301 -13.853019 3.797287 74.722434 1.611557 18.591298 178.160998 81.979706 -179.683542 -3.538825 12.410608 0.153628 -3.587416 12.400548 0.000000 0.000000 0.000000 0.000000 0.000000 0.000000 0.000000 
-1.805724 17.291603 25.027545 3.801112 3.733125 10.288149 -3.647112 11.785945 -5.732869 -24.079933 -4.382447 -7.309900 -9.099017 -4.785937 -10.034413 -0.425982 1.409394 4.339639 0.000000 0.000000 0.000000 11.363276 -10.363307 3.289670 3.038831 2.783266 -11.402607 -10.913021 -24.088033 46.919710 19.351415 -52.593650 23.897842 0.000000 0.000000 0.000000 -3.375105 1.151629 10.758686 2.054252 -0.039358 -1.799806 -2.894488 0.790613 -7.840052 1.671800 0.079133 -0.577002 2.939205 -0.132132 4.875790 0.000000 0.000000 0.000000 3.250582 8.911712 8.777596 -68.306962 -5.554254 24.167187 -28.582468 -69.920280 0.665969 -0.370978 -13.897718 0.329428 -0.361690 -13.908695 0.000000 0.000000 0.000000 0.000000 0.000000 0.000000 0.000000 -7.633456 -13.844340 3.967369 74.088427 1.505879 19.062600 178.997554 82.844450 -179.674842 -3.416593 12.538001 0.157980 -3.464713 12.528652 0.000000 0.000000 0.000000 0.000000 0.000000 0.000000 0.000000 
-1.804616 17.321156 25.194282 3.994157 3.260569 10.341614 -3.601563 12.092358 -5.834134 -24.501727 -4.399006 -7.359317 -8.608195 -4.163096 -8.493027 -0.446680 0.620868 2.413251 0.000000 0.000000 0.000000 11.631990 -10.312303 3.716031 2.305082 2.449964 -11.366864 -10.848139 -23.915017 46.168466 18.754947 -52.742183 25.187155 0.000000 0.000000 0.000000 -3.645478 1.005068 10.478951 2.038344 -0.156403 -1.717159 -2.497046 0.646346 -7.749126 1.528961 0.062185 -0.701282 2.836848 -0.122758 4.671415 0.000000 0.000000 0.000000 3.153289 9.037853 8.910395 -68.441766 -5.344806 24.097379 -26.827342 -71.222856 0.648927 -0.067252 -14.122871 0.320523 -0.053050 -14.132884 0.000000 0.000000 0.000000 0.000000 0.000000 0.000000 0.000000 -7.026614 -13.811163 4.252779 73.006061 1.467952 19.832749 -179.527592 84.369139 -179.660567 -3.191489 12.713787 0.165168 -3.238235 12.705779 0.000000 0.000000 0.000000 0.000000 0.000000 0.000000 0.000000 
-1.802206 17.349738 25.355636 4.159782 2.757423 10.402095 -3.596277 12.369508 -5.924167 -24.834672 -4.400825 -7.426170 -8.138223 -3.563303 -7.056279 -0.449912 -0.070110 0.658784 0.000000 0.000000 0.000000 11.905495 -10.249981 4.134842 1.579810 2.128781 -11.337495 -10.786465 -23.759318 45.413340 18.096998 -52.804941 26.481186 0.000000 0.000000 0.000000 -3.907227 0.855964 10.201798 2.034241 -0.271638 -1.648479 -2.099114 0.506027 -7.652574 1.379126 0.047740 -0.816786 2.743969 -0.113071 4.462752 0.000000 0.000000 0.000000 3.045401 9.215581 9.028830 -68.570864 -5.153248 23.944471 -25.195510 -72.369220 0.629358 0.223500 -14.315735 0.310366 0.242682 -14.324636 0.000000 0.000000 0.000000 0.000000 0.000000 0.000000 0.000000 -6.399702 -13.812309 4.573192 71.874062 1.496178 20.568642 -177.838200 86.083243 -179.647108 -2.925583 12.841791 0.172015 -2.970189 12.835353 0.000000 0.000000 0.000000 0.000000 0.000000 0.000000 0.000000 
